<svg xmlns="http://www.w3.org/2000/svg" fill="none" viewBox="0 0 280 236"><path fill="#000" d="m268.21 166.946-13.533 33.516-13.442-33.516h-12.454l19.759 45.992-1.225 2.889c-.876 2.057-1.967 3.743-3.282 5.058s-2.967 2.371-4.956 3.18c-2.001.81-4.462 1.529-7.396 2.158l2.72 9.273c2.742-.438 5.271-1.034 7.587-1.776a23.6 23.6 0 0 0 6.361-3.181c1.934-1.315 3.743-3.091 5.429-5.338 1.686-2.181 3.248-4.968 4.687-8.34L280 166.946h-11.802zm-60.65-.933c-3.866 0-7.272.91-10.205 2.72-2.372 1.416-4.271 3.349-5.71 5.788l-.753-7.564h-11.33c.248 1.933.439 3.9.562 5.901s.192 3.968.192 5.901v35.494h11.7v-26.682c0-3.743 1.056-6.744 3.181-8.992s4.99-3.372 8.609-3.372c2.934 0 5.114.843 6.553 2.529 1.495 1.618 2.248 4.338 2.248 8.149v28.368h11.7v-28.93c0-6.62-1.405-11.487-4.215-14.612q-4.215-4.686-12.543-4.687zm-47.744 2.99c-3.563-2.001-7.766-3.001-12.644-3.001s-9.082 1-12.645 3.001-6.339 4.833-8.328 8.519q-2.9 5.43-2.9 13.016c0 5.058.966 9.43 2.9 13.105 2 3.687 4.776 6.519 8.328 8.52 3.563 2 7.767 3.001 12.645 3.001s9.081-1.001 12.644-3.001c3.619-2.001 6.395-4.845 8.329-8.52 2-3.686 3.001-8.047 3.001-13.105q0-7.587-3.001-13.016c-1.934-3.686-4.71-6.519-8.329-8.519m-3.844 33.336q-3.27 3.844-8.8 3.844t-8.801-3.844c-2.18-2.618-3.282-6.552-3.282-11.801s1.09-9.149 3.282-11.701q3.271-3.844 8.801-3.844t8.8 3.844c2.181 2.563 3.282 6.463 3.282 11.701 0 5.237-1.09 9.171-3.282 11.801m-41.924-57.029h-11.7v68.921h11.7zm-32.191 23.693q-5.345-3.001-12.644-3.001t-12.645 3.001c-3.563 2-6.339 4.833-8.328 8.519q-2.9 5.43-2.9 13.016c0 5.058.966 9.43 2.9 13.105 2 3.687 4.776 6.519 8.328 8.52q5.344 3 12.645 3.001t12.644-3.001c3.62-2.001 6.395-4.845 8.329-8.52 2-3.686 3-8.047 3-13.105q0-7.587-3-13.016c-1.934-3.686-4.71-6.519-8.329-8.519m-3.844 33.336q-3.27 3.844-8.8 3.844t-8.8-3.844c-2.181-2.618-3.283-6.552-3.283-11.801s1.09-9.149 3.282-11.701q3.27-3.844 8.8-3.844t8.801 3.844c2.18 2.563 3.282 6.463 3.282 11.701 0 5.237-1.09 9.171-3.282 11.801m-52.735-27.244c2 0 4.024.404 6.092 1.214a16.3 16.3 0 0 1 5.71 3.461l3.562-8.148c-1.877-1.81-4.305-3.181-7.306-4.125a27.9 27.9 0 0 0-9.081-1.495c-4.867 0-9.115.966-12.734 2.9-3.62 1.933-6.463 4.709-8.52 8.328-2 3.619-3.001 7.991-3.001 13.105s1 9.554 3.001 13.297c2 3.686 4.81 6.519 8.43 8.519 3.686 2.001 7.957 3.001 12.824 3.001 3.057 0 6.058-.494 8.992-1.494 3-1.001 5.462-2.406 7.395-4.215l-3.563-8.059c-1.742 1.562-3.686 2.72-5.81 3.462-2.057.753-4.058 1.124-5.991 1.124-4.181 0-7.463-1.338-9.835-4.024-2.304-2.686-3.462-6.519-3.462-11.521 0-5.001 1.158-8.8 3.462-11.419 2.372-2.619 5.654-3.934 9.835-3.934z"/><path fill="#E94278" d="m162.467 139.69 10.25-2.45c12.544-3.035 20.94-9.869 30.28-16.747 7.182-5.294 13.97-12.869 20.231-19.242 3.833-3.89 6.98-7.823 11.026-16.354.202-.438.36-.91.438-1.394l.326-1.865c1.079-6.182-5.856-10.588-10.992-6.991a5.3 5.3 0 0 0-1.27 1.28l-20.085 29.752c-1.596 2.36-2.147 5.26-2.203 8.115-.056 2.664-.573 5.811-2.518 7.295-1.18.91-2.956 1.247-4.631 1.337-2.821.157-5.698.641-8.047 2.203l-22.794 15.061z"/><path fill="#E94278" fill-rule="evenodd" d="M205.189 20.596c-19.411 7.474-33.191 26.3-33.191 48.34 0 13.904 4.62 26.672 13.544 35.979-1.09-.529-2.102-1.383-3.012-2.293l-32.314-33.18c-2.079-2.079-1.607-5.552.933-7.013l16.331-9.351a11.23 11.23 0 0 0 4.9-5.755l16.669-44.43c1.405-3.743 6.631-3.889 8.249-.236l7.902 17.939zM120.487 122.1a45.3 45.3 0 0 1 37.057-19.107 45.4 45.4 0 0 1 26.874 8.755 8.77 8.77 0 0 0-3.586-7.193l-20.107-14.892a11.23 11.23 0 0 0-11.33-1.203l-42.024 19.017c-3.406 1.54-3.507 6.317-.158 7.98l13.285 6.632z" clip-rule="evenodd"/><path fill="#9C163A" d="m222.43 60.001-17.264-39.394c-19.399 7.474-33.156 26.3-33.156 48.33 0 13.903 4.608 26.649 13.521 35.955 4.912 2.99 11.532 1.765 14.949-3.259l20.95-30.785a11.25 11.25 0 0 0 1-10.847m-73.529 76.486a11.25 11.25 0 0 0 12.139-1.349l20.119-16.522a8.78 8.78 0 0 0 3.237-6.879c-7.508-5.496-16.803-8.755-26.863-8.755a45.33 45.33 0 0 0-37.056 19.107l28.413 14.398z"/></svg>